<svg xmlns="http://www.w3.org/2000/svg" width="103" height="24" viewBox="0 0 103 24">
    <g fill="none" fill-rule="evenodd">
        <path fill="#49D586" fill-rule="nonzero" d="M7.473 11.886l-4.341 4.113v-5.642l8.221-7 8.222 7V23.08h3.132V10.343c0-.92-.404-1.794-1.102-2.389L13.37.944a3.11 3.11 0 0 0-4.035 0l-8.234 7.01A3.138 3.138 0 0 0 0 10.344v12.953l7.511-7.115 3.27 2.988 7.186-7.192L15.76 9.74l-5.077 5.081-3.21-2.934z"/>
        <g fill="#000">
            <path fill-rule="nonzero" d="M32.508 11.41a9.13 9.13 0 0 1 .574-3.166 8.623 8.623 0 0 1 1.673-2.797 8.478 8.478 0 0 1 2.688-1.995c1.058-.51 2.263-.764 3.615-.764 1.596 0 2.977.353 4.141 1.06 1.165.706 2.032 1.625 2.602 2.759l-2.59 1.799a4.468 4.468 0 0 0-.83-1.245 4.158 4.158 0 0 0-1.05-.8 4.69 4.69 0 0 0-1.173-.432 5.516 5.516 0 0 0-1.198-.135c-.846 0-1.583.172-2.21.517a4.875 4.875 0 0 0-1.564 1.343 5.941 5.941 0 0 0-.94 1.873 7.144 7.144 0 0 0-.318 2.082c0 .772.122 1.515.366 2.23a5.95 5.95 0 0 0 1.039 1.885c.447.542.985.977 1.612 1.306a4.38 4.38 0 0 0 2.064.492c.391 0 .798-.049 1.222-.147a4.62 4.62 0 0 0 1.21-.469 4.587 4.587 0 0 0 1.062-.825c.326-.337.586-.743.782-1.22l2.76 1.602A5.26 5.26 0 0 1 46.86 18.1a7.627 7.627 0 0 1-1.734 1.269 8.813 8.813 0 0 1-2.065.788c-.732.181-1.45.271-2.15.271-1.237 0-2.37-.262-3.395-.788a8.853 8.853 0 0 1-2.65-2.057A9.562 9.562 0 0 1 33.13 14.7a9.065 9.065 0 0 1-.623-3.29zm20.985 9.117a4.82 4.82 0 0 1-1.734-.308 4.164 4.164 0 0 1-1.393-.862c-.39-.37-.696-.801-.916-1.294a3.946 3.946 0 0 1-.33-1.626c0-.608.134-1.17.403-1.688a3.861 3.861 0 0 1 1.124-1.318c.48-.362 1.055-.645 1.722-.85a7.453 7.453 0 0 1 2.199-.308c.57 0 1.128.049 1.674.147.545.1 1.03.239 1.453.42v-.74c0-.854-.24-1.511-.72-1.971-.481-.46-1.194-.69-2.138-.69-.684 0-1.352.123-2.004.37a9.277 9.277 0 0 0-2.003 1.084L49.83 8.798c1.645-1.1 3.42-1.65 5.325-1.65 1.84 0 3.27.455 4.288 1.367 1.018.912 1.527 2.23 1.527 3.955v4.016c0 .345.06.591.183.74.122.147.322.23.599.246v2.809a7.23 7.23 0 0 1-1.442.172c-.619 0-1.095-.14-1.429-.419a1.804 1.804 0 0 1-.623-1.109l-.073-.714a5.676 5.676 0 0 1-2.077 1.725 5.92 5.92 0 0 1-2.614.591zm.928-2.415c.554 0 1.08-.098 1.576-.295.497-.197.884-.46 1.16-.789.359-.28.538-.591.538-.936v-1.479a7.962 7.962 0 0 0-1.27-.357 6.786 6.786 0 0 0-1.32-.135c-.846 0-1.539.193-2.076.579-.538.386-.806.874-.806 1.466 0 .558.211 1.022.635 1.392.423.37.945.554 1.563.554zm14.439 2.415a9.826 9.826 0 0 1-3.152-.517c-1.026-.345-1.905-.838-2.638-1.479l1.221-2.07c.782.559 1.543.982 2.284 1.27a6.078 6.078 0 0 0 2.211.43c.652 0 1.165-.123 1.54-.369.374-.246.561-.6.561-1.06 0-.46-.22-.796-.66-1.01-.439-.213-1.156-.46-2.15-.739-.83-.23-1.538-.452-2.125-.665-.586-.214-1.058-.456-1.416-.727a2.482 2.482 0 0 1-.782-.936c-.163-.354-.245-.777-.245-1.27 0-.656.127-1.248.38-1.773a3.86 3.86 0 0 1 1.062-1.343c.456-.37.99-.653 1.6-.85a6.45 6.45 0 0 1 1.991-.296c.961 0 1.86.14 2.7.419.838.279 1.608.73 2.308 1.355l-1.319 1.996c-.651-.493-1.283-.854-1.893-1.084a5.137 5.137 0 0 0-1.82-.345c-.554 0-1.018.115-1.393.345-.374.23-.562.6-.562 1.108 0 .23.045.42.135.567.09.148.232.28.427.394.196.115.452.226.77.333.317.107.712.218 1.185.333.879.23 1.632.46 2.26.69.626.23 1.14.492 1.538.788.4.296.693.637.88 1.023.187.386.28.85.28 1.392 0 1.265-.463 2.263-1.392 2.994-.928.73-2.19 1.096-3.786 1.096zm10.798 0a4.82 4.82 0 0 1-1.735-.308 4.164 4.164 0 0 1-1.392-.862c-.391-.37-.697-.801-.916-1.294a3.946 3.946 0 0 1-.33-1.626c0-.608.134-1.17.403-1.688a3.861 3.861 0 0 1 1.124-1.318c.48-.362 1.054-.645 1.722-.85a7.453 7.453 0 0 1 2.199-.308c.57 0 1.128.049 1.673.147.546.1 1.03.239 1.454.42v-.74c0-.854-.24-1.511-.72-1.971-.481-.46-1.194-.69-2.139-.69-.684 0-1.351.123-2.003.37a9.277 9.277 0 0 0-2.003 1.084l-1.002-2.095c1.645-1.1 3.42-1.65 5.326-1.65 1.84 0 3.27.455 4.288 1.367 1.017.912 1.526 2.23 1.526 3.955v4.016c0 .345.061.591.184.74.122.147.321.23.598.246v2.809a7.23 7.23 0 0 1-1.441.172c-.62 0-1.095-.14-1.43-.419a1.804 1.804 0 0 1-.622-1.109l-.074-.714a5.676 5.676 0 0 1-2.076 1.725 5.92 5.92 0 0 1-2.614.591zm.928-2.415c.554 0 1.08-.098 1.576-.295.497-.197.883-.46 1.16-.789.359-.28.538-.591.538-.936v-1.479a7.962 7.962 0 0 0-1.27-.357 6.786 6.786 0 0 0-1.32-.135c-.847 0-1.539.193-2.076.579-.538.386-.807.874-.807 1.466 0 .558.212 1.022.636 1.392.423.37.944.554 1.563.554z"/>
            <path d="M89.468 20.457V2.687h11.87v3.029h-8.436v4.58h4.474v2.803h-4.474v7.358z"/>
            <path d="M102.441 8.196v12.26h-3.273V8.197z"/>
        </g>
    </g>
</svg>
