<?xml version="1.0" standalone="no"?>
<!DOCTYPE svg PUBLIC "-//W3C//DTD SVG 20010904//EN"
 "http://www.w3.org/TR/2001/REC-SVG-20010904/DTD/svg10.dtd">
<svg version="1.0" xmlns="http://www.w3.org/2000/svg"
 width="300.000000pt" height="300.000000pt" viewBox="0 0 300.000000 300.000000"
 preserveAspectRatio="xMidYMid meet">
<metadata>
Created by potrace 1.11, written by Peter Selinger 2001-2013
</metadata>
<g transform="translate(0.000000,300.000000) scale(0.100000,-0.100000)"
fill="#000000" stroke="none">
<path d="M0 1500 l0 -1500 1500 0 1500 0 0 1500 0 1500 -1500 0 -1500 0 0
-1500z m2920 0 l0 -1420 -1420 0 -1420 0 0 1420 0 1420 1420 0 1420 0 0 -1420z"/>
<path d="M1279 2894 c-1 -5 -2 -638 -3 -1406 -1 -1145 1 -1398 12 -1398 7 0
88 14 180 30 92 17 181 32 197 35 17 3 36 8 43 10 9 3 12 122 12 545 l0 541
24 24 c17 17 32 23 50 19 14 -2 38 -6 53 -8 16 -2 39 -6 53 -9 14 -4 39 -8 55
-11 125 -17 164 -31 176 -63 5 -14 9 -234 9 -494 0 -443 1 -470 18 -466 9 3
35 8 57 12 22 4 49 9 60 11 11 2 68 13 127 23 115 22 148 37 166 77 17 35 17
1616 1 1665 -19 56 -56 97 -136 149 -41 28 -76 50 -78 50 -3 0 -169 105 -315
199 -14 9 -33 20 -43 26 -9 5 -52 32 -95 59 -42 28 -162 104 -267 169 -104 66
-221 140 -258 164 -76 49 -97 59 -98 47z"/>
<path d="M720 1289 c-19 -4 -53 -11 -75 -14 -22 -3 -47 -8 -55 -10 -8 -2 -31
-7 -50 -10 -73 -11 -88 -17 -106 -36 -18 -20 -19 -49 -19 -496 0 -261 3 -477
7 -479 4 -3 45 -11 90 -19 46 -8 94 -17 108 -20 92 -19 202 -35 208 -31 4 2 7
245 6 540 0 518 -1 537 -20 555 -25 25 -52 31 -94 20z"/>
</g>
</svg>
