<?xml version="1.0" standalone="no"?>
<!DOCTYPE svg PUBLIC "-//W3C//DTD SVG 20010904//EN"
 "http://www.w3.org/TR/2001/REC-SVG-20010904/DTD/svg10.dtd">
<svg version="1.0" xmlns="http://www.w3.org/2000/svg"
 width="390.000000pt" height="390.000000pt" viewBox="0 0 390.000000 390.000000"
 preserveAspectRatio="xMidYMid meet">
<metadata>
Created by potrace 1.11, written by Peter Selinger 2001-2013
</metadata>
<g transform="translate(0.000000,390.000000) scale(0.100000,-0.100000)"
fill="#000000" stroke="none">
<path d="M1845 3893 c-37 -7 -110 -34 -150 -55 -55 -29 -72 -42 -485 -391
-906 -765 -1050 -889 -1080 -924 -44 -53 -97 -167 -109 -237 -14 -74 -15
-2279 -2 -2274 5 1 73 64 152 140 79 75 163 153 185 175 37 34 201 188 338
316 28 27 109 103 181 170 71 67 156 148 190 179 182 172 221 206 231 200 10
-6 62 -53 252 -227 30 -27 62 -57 72 -65 9 -8 59 -53 110 -100 51 -47 98 -88
105 -92 7 -5 232 211 621 597 l609 603 -20 22 c-11 12 -95 98 -187 191 l-166
168 -289 -285 c-158 -157 -353 -350 -433 -429 l-145 -145 -50 48 c-27 26 -93
85 -145 132 -52 47 -101 92 -110 100 -88 82 -215 197 -227 204 -16 9 -21 5
-153 -120 -68 -64 -142 -134 -255 -239 -22 -21 -102 -97 -179 -169 -76 -72
-144 -134 -151 -138 -10 -6 -13 83 -13 465 l1 472 52 43 c28 24 62 53 76 65
13 12 94 80 179 152 85 71 157 132 160 135 5 5 183 155 214 180 10 8 24 20 30
27 7 6 42 35 77 64 79 66 108 91 123 104 6 6 97 82 201 170 105 88 203 172
219 187 66 60 65 60 173 -34 54 -46 156 -133 228 -194 71 -60 141 -119 155
-130 39 -34 570 -482 619 -523 46 -38 70 -59 111 -94 14 -12 60 -51 103 -87
l77 -64 0 -1073 c0 -1066 0 -1073 20 -1074 133 -6 503 -2 508 5 3 6 5 501 5
1101 -1 816 -4 1106 -13 1150 -23 112 -89 222 -179 299 -25 21 -68 58 -96 81
-42 37 -556 470 -709 599 -27 23 -54 46 -60 51 -6 6 -54 46 -106 90 -52 44
-113 95 -136 115 -22 19 -51 44 -65 55 -13 11 -78 65 -144 121 -183 153 -250
185 -405 189 -52 1 -104 1 -115 -2z"/>
</g>
</svg>
