<svg version="1.1" id="Layer_1" xmlns="http://www.w3.org/2000/svg" xmlns:xlink="http://www.w3.org/1999/xlink" x="0px" y="0px" width="269.9px" height="293.3px" viewBox="0 0 269.9 293.3" style="enable-background:new 0 0 269.9 293.3;" xml:space="preserve" class="svg replaced-svg">
<g>
	<path style="fill:#DA1C5C;" d="M126.4,109.8c2,11.9,8.6,23,19.2,30.6c10.6,7.5,23.3,10,35.2,8c11.9-2,23-8.6,30.6-19.2   c7.5-10.6,10-23.3,8-35.2c-2-11.9-8.6-23.1-19.2-30.6c-10.6-7.5-23.3-10-35.3-8c-11.9,2-23,8.6-30.5,19.2   C126.9,85.2,124.4,97.9,126.4,109.8"></path>
	<path style="fill:#FFFFFF;" d="M220,115.7l-1.7-0.6c-5.6,19.9-23.8,33.6-44.6,34c-22.6,0.5-42-15.4-46.8-36.6c0,0-18-4.6-41.8-20.4   c0,0-25.5-17.3-38-17c0,0-15.9-1.9-28.6,20.2c0,0-18.5,27.7-13.2,65.1c0,0,4.6,52.9,54.8,93c0,0,45.5,40.4,107.2,35.5   c0,0,73.6-1.5,92.7-75.3c0,0,7.5-26.4,0.3-51.7C260.4,161.8,253.7,128,220,115.7"></path>
	<path style="fill:#065DA3;" d="M167.5,288.9c31.8-2.5,60.3-16.7,77.9-42c1.7-2.4,3.2-4.9,4.7-7.6c11.4-20.5,16.4-47.3,11.9-71.2   c-7-37.4-37.2-67.4-101.7-54.5c-0.4,0.1-0.8,0.2-1.1,0.2c-42.9,8-73.9-26.3-100.1-36.2c-13.6-5.2-25.8-3.8-37.8,13.4   c-2.4,3.5-4.6,7.1-6.5,10.8C3,125,1.5,152.2,9.1,178.7c7.7,26.8,24.6,53,49.4,73.5c3.6,2.9,7.3,5.8,11.2,8.5   C100.6,282.1,135.7,291.3,167.5,288.9"></path>
	<path style="fill:#00AEEF;" d="M71.9,48.7c1.6,9.3,6.8,18.1,15.1,24c8.4,5.9,18.3,7.9,27.7,6.3c9.3-1.6,18.1-6.8,24-15.1   c5.9-8.3,7.9-18.3,6.3-27.6c-1.6-9.4-6.8-18.1-15.1-24c-8.4-5.9-18.3-7.9-27.7-6.3c-9.3,1.6-18.1,6.8-24,15.1   C72.3,29.4,70.3,39.4,71.9,48.7"></path>
	<path style="fill:#DA1C5C;" d="M44.8,57.9c4.2,0,7.6-3.4,7.6-7.6c0-4.2-3.4-7.6-7.6-7.6c-4.2,0-7.6,3.4-7.6,7.6   C37.2,54.5,40.6,57.9,44.8,57.9"></path>
	<path style="fill:#A20A43;" d="M158.3,113.5c-11.6,2.1-22.3,1.2-32.2-1.5l0.4-0.1c4.7,21,23.4,36.8,45.9,36.8   c21.4,0,39.5-14.4,45.2-34l-0.2,0c-15-5.1-34.1-6.2-57.9-1.4C159,113.4,158.7,113.4,158.3,113.5"></path>
	<path style="fill:#FFFFFF;" d="M71.3,164.4c-1.3,0.6-2.4,1.3-3.4,2.3c-1,0.9-1.7,2.1-2.3,3.4c-0.6,1.3-0.8,2.7-0.8,4.1v0.4   c3-2.3,6.6-3.4,10.7-3.4v7.4c-1.3,0-2.4,0.2-3.5,0.6c-1.1,0.4-2.1,1-3,1.6c-1.1,0.9-2.1,1.9-2.8,3.2c-0.8,1.3-1.2,2.7-1.3,4.2v19.3   h-7.5v-18.3v-1.3v-13.7c0-2.5,0.4-4.8,1.4-7c1-2.2,2.3-4.1,3.9-5.8c1.7-1.6,3.6-2.9,5.8-3.9c2.2-1,4.6-1.5,7-1.5v7.6   C73.9,163.6,72.5,163.8,71.3,164.4"></path>
	<polygon style="fill:#FFFFFF;" points="78.3,161.5 85.9,153.9 85.9,207.5 78.3,207.5  "></polygon>
	<path style="fill:#FFFFFF;" d="M125.2,189.2c0,2.5-0.4,4.8-1.4,7c-0.9,2.2-2.2,4.1-3.9,5.8c-1.7,1.6-3.6,2.9-5.8,3.9   c-2.2,1-4.6,1.5-7,1.5H107c-2.5,0-4.8-0.6-7-1.5c-2.2-1-4.1-2.3-5.8-3.9c-1.7-1.6-3-3.5-3.9-5.8c-0.9-2.2-1.4-4.6-1.3-7V171h7.4   l0.1,18.2c0,1.5,0.3,2.8,0.8,4.1s1.3,2.4,2.2,3.4c0.9,1,2.1,1.7,3.4,2.3c1.3,0.6,2.7,0.8,4.1,0.8c1.5,0,2.9-0.3,4.2-0.8   c1.3-0.6,2.4-1.3,3.4-2.3c0.9-1,1.7-2.1,2.3-3.4c0.6-1.3,0.8-2.7,0.8-4.1V171h7.6V189.2z"></path>
	<path style="fill:#FFFFFF;" d="M146.3,199.9c1.5,0,2.8-0.3,4.1-0.8c1.3-0.6,2.4-1.3,3.4-2.3c1-0.9,1.7-2.1,2.3-3.4   c0.6-1.3,0.8-2.7,0.8-4.2h7.6c0,2.5-0.5,4.9-1.4,7.1c-0.9,2.2-2.2,4.1-3.9,5.8c-1.6,1.6-3.6,3-5.8,3.9c-2.2,0.9-4.6,1.4-7.1,1.4   c-2.5,0-4.9-0.5-7.1-1.4c-2.2-0.9-4.1-2.3-5.8-3.9c-1.7-1.7-3-3.6-3.9-5.8c-0.9-2.2-1.4-4.6-1.4-7.1c0-2.5,0.5-4.9,1.4-7.1   c0.9-2.2,2.2-4.1,3.9-5.8c1.7-1.6,3.6-2.9,5.8-3.9c2.2-0.9,4.6-1.4,7.1-1.4c2.5,0,4.8,0.4,6.9,1.3c2.1,0.9,4,2.1,5.7,3.7l0.1,0.1   l5,5.1l-8.2,8.1h-10.1l7.8-8c-0.9-0.8-2-1.5-3.3-2c-1.3-0.5-2.6-0.8-4-0.8c-1.5,0-2.8,0.3-4.1,0.8c-1.3,0.6-2.4,1.3-3.4,2.3   c-1,1-1.7,2.1-2.3,3.4c-0.6,1.3-0.8,2.7-0.8,4.1c0,1.5,0.3,2.8,0.8,4.1c0.6,1.3,1.3,2.4,2.3,3.4c1,1,2.1,1.7,3.4,2.3   C143.5,199.6,144.9,199.9,146.3,199.9"></path>
	<path style="fill:#FFFFFF;" d="M204,207.5h-7.6v-18.2c0-1.5-0.3-2.9-0.8-4.2c-0.6-1.3-1.3-2.4-2.3-3.4c-1-0.9-2.1-1.7-3.4-2.3   c-1.3-0.6-2.7-0.8-4.1-0.8s-2.8,0.3-4.1,0.8c-1.3,0.6-2.4,1.3-3.4,2.3c-1,1-1.7,2.1-2.3,3.4c-0.6,1.3-0.8,2.7-0.8,4.2v18.2h-7.6   v-18.2c-0.1-2.5,0.4-4.8,1.3-7c1-2.2,2.3-4.1,3.9-5.8c1.7-1.6,3.6-3,5.8-3.9c2.2-1,4.6-1.5,7.1-1.5c2.5,0,4.9,0.5,7.1,1.5   c2.2,1,4.2,2.3,5.8,3.9c1.7,1.7,3,3.6,3.9,5.8c1,2.2,1.4,4.6,1.3,7V207.5z"></path>
	<path style="fill:#FFFFFF;" d="M215.4,193.3c0.6,1.3,1.3,2.5,2.3,3.4c1,1,2.1,1.7,3.4,2.3c1.3,0.6,2.7,0.8,4.2,0.8v7.6   c-2.5,0-4.8-0.5-7-1.4c-2.2-0.9-4.1-2.2-5.8-3.8c-1.6-1.6-3-3.5-4-5.7c-1-2.2-1.5-4.5-1.6-7v-28.2l7.6-7.7V171h2.7h7.9v7.6h-10.6   v9.6v1C214.5,190.6,214.8,192,215.4,193.3"></path>
	<path style="fill:#FFFFFF;" d="M57.8,215h1.1v3.8c0.2-0.5,0.4-1,0.8-1.5c0.3-0.5,0.8-0.9,1.2-1.3c0.5-0.4,1-0.7,1.7-1   c0.6-0.2,1.3-0.4,2.1-0.4c0.8,0,1.6,0.1,2.3,0.4c0.7,0.2,1.2,0.6,1.7,1s0.9,0.9,1.2,1.4c0.3,0.5,0.6,1.1,0.8,1.7   c0.2-0.6,0.5-1.1,0.9-1.6s0.8-1,1.3-1.4c0.5-0.4,1.1-0.8,1.7-1c0.6-0.3,1.4-0.4,2.1-0.4c1.9,0,3.5,0.6,4.6,1.9   c1.2,1.2,1.7,3,1.7,5.3v10h-1.1v-9.9c0-2-0.5-3.6-1.5-4.7c-1-1.1-2.3-1.6-3.9-1.6c-0.7,0-1.4,0.2-2.1,0.5c-0.7,0.3-1.3,0.7-1.8,1.3   c-0.5,0.6-0.9,1.2-1.3,2c-0.3,0.8-0.5,1.6-0.5,2.6v9.8h-1.1v-9.9c0-2-0.5-3.6-1.5-4.6c-1-1.1-2.3-1.6-3.9-1.6   c-0.7,0-1.4,0.2-2.1,0.5c-0.7,0.3-1.3,0.8-1.8,1.4c-0.5,0.6-0.9,1.3-1.3,2c-0.3,0.8-0.5,1.6-0.5,2.5v9.7h-1.1V215z"></path>
	<path style="fill:#FFFFFF;" d="M96.4,232.2c-1.3,0-2.5-0.2-3.5-0.7c-1.1-0.5-2-1.1-2.8-1.9c-0.8-0.8-1.4-1.7-1.8-2.8   c-0.4-1.1-0.6-2.2-0.6-3.3v-0.1c0-1.2,0.2-2.3,0.6-3.4c0.4-1.1,1-2,1.8-2.8c0.8-0.8,1.7-1.4,2.8-1.9c1.1-0.5,2.3-0.7,3.6-0.7   c1.3,0,2.5,0.2,3.5,0.7c1.1,0.5,2,1.1,2.7,1.9c0.8,0.8,1.4,1.7,1.8,2.8c0.4,1.1,0.6,2.2,0.6,3.4v0.1c0,1.2-0.2,2.3-0.6,3.4   c-0.4,1.1-1,2-1.8,2.8s-1.7,1.4-2.8,1.9C98.9,232,97.7,232.2,96.4,232.2 M96.4,231.2c1.1,0,2.1-0.2,3.1-0.6c0.9-0.4,1.7-1,2.4-1.7   c0.7-0.7,1.2-1.5,1.6-2.5c0.4-0.9,0.6-1.9,0.6-3v-0.1c0-1.1-0.2-2.1-0.6-3c-0.4-0.9-0.9-1.7-1.6-2.5c-0.7-0.7-1.5-1.3-2.4-1.7   c-0.9-0.4-2-0.6-3-0.6c-1.1,0-2.1,0.2-3.1,0.6c-0.9,0.4-1.7,1-2.4,1.7c-0.7,0.7-1.2,1.5-1.5,2.5c-0.4,0.9-0.6,1.9-0.6,3v0.1   c0,1.1,0.2,2.1,0.6,3c0.4,0.9,0.9,1.7,1.6,2.5c0.7,0.7,1.5,1.3,2.4,1.7C94.3,231,95.3,231.2,96.4,231.2"></path>
	<path style="fill:#FFFFFF;" d="M110.1,215h1.1v5.1c0.2-0.7,0.6-1.4,1-2.1c0.4-0.7,1-1.3,1.6-1.8c0.6-0.5,1.3-0.9,2.1-1.2   s1.6-0.4,2.5-0.4v1.1h-0.2c-1,0-2,0.2-2.8,0.7c-0.9,0.5-1.6,1.1-2.2,1.8c-0.6,0.7-1.1,1.6-1.4,2.6c-0.3,1-0.5,2-0.5,3v8h-1.1V215z"></path>
	<path style="fill:#FFFFFF;" d="M127.5,232.1c-1.4,0-2.4-0.4-3.3-1.1c-0.8-0.8-1.2-1.9-1.2-3.5V216h-2.6v-1h2.6v-5.6h1.1v5.6h6.1v1   h-6.1v11.4c0,1.2,0.3,2.2,0.9,2.8c0.6,0.6,1.5,0.9,2.6,0.9c0.8,0,1.7-0.2,2.5-0.6v1C129.4,231.9,128.5,232.1,127.5,232.1"></path>
	<path style="fill:#FFFFFF;" d="M142.3,237.3c-2.8,0-5.4-0.9-7.7-2.6l0.6-0.9c2.1,1.6,4.5,2.4,7,2.4c1.1,0,2-0.1,2.9-0.4   c0.9-0.3,1.6-0.7,2.2-1.3c0.6-0.6,1.1-1.3,1.4-2.2c0.3-0.9,0.5-1.9,0.5-3.1v-3c-0.6,1.3-1.6,2.4-2.9,3.2c-1.3,0.9-2.8,1.3-4.5,1.3   c-1.1,0-2.1-0.2-3.1-0.6c-1-0.4-1.9-1-2.6-1.7c-0.8-0.7-1.4-1.6-1.8-2.5c-0.4-1-0.7-2-0.7-3.1v-0.1c0-1.1,0.2-2.2,0.7-3.2   c0.4-1,1-1.8,1.8-2.5c0.8-0.7,1.6-1.3,2.6-1.7c1-0.4,2-0.6,3.1-0.6c0.8,0,1.6,0.1,2.4,0.3c0.8,0.2,1.4,0.5,2.1,0.9   c0.6,0.4,1.2,0.9,1.6,1.4c0.5,0.5,0.9,1.1,1.2,1.8v-4h1.1v14.2c0,1.2-0.2,2.4-0.6,3.3c-0.4,1-0.9,1.8-1.6,2.5   c-0.7,0.7-1.6,1.3-2.6,1.6C144.6,237.1,143.5,237.3,142.3,237.3 M142.1,229.6c1,0,1.9-0.2,2.8-0.5c0.9-0.4,1.7-0.8,2.3-1.4   c0.7-0.6,1.2-1.3,1.6-2.2c0.4-0.8,0.6-1.8,0.6-2.7v-0.1c0-1-0.2-1.9-0.6-2.7s-0.9-1.6-1.6-2.2c-0.7-0.6-1.4-1.1-2.3-1.5   c-0.9-0.4-1.8-0.5-2.8-0.5c-1,0-1.9,0.2-2.8,0.5c-0.9,0.3-1.6,0.8-2.3,1.4c-0.6,0.6-1.2,1.4-1.5,2.2c-0.4,0.8-0.6,1.8-0.6,2.8v0.1   c0,1,0.2,1.9,0.6,2.7c0.4,0.8,0.9,1.6,1.5,2.2c0.6,0.6,1.4,1.1,2.3,1.5C140.2,229.4,141.1,229.6,142.1,229.6"></path>
	<path style="fill:#FFFFFF;" d="M161.6,232.2c-0.8,0-1.6-0.1-2.4-0.3c-0.8-0.2-1.4-0.5-2-1c-0.6-0.4-1.1-1-1.4-1.6   c-0.4-0.6-0.5-1.4-0.5-2.2V227c0-0.9,0.2-1.6,0.6-2.3c0.4-0.7,0.9-1.2,1.5-1.7c0.7-0.5,1.4-0.8,2.4-1c0.9-0.2,1.9-0.4,3-0.4   c1.2,0,2.3,0.1,3.3,0.3c1,0.2,1.9,0.4,2.7,0.7v-1.1c0-1.9-0.5-3.3-1.6-4.2c-1.1-0.9-2.5-1.4-4.4-1.4c-1,0-2,0.1-2.9,0.4   c-0.9,0.3-1.7,0.6-2.6,1l-0.4-0.9c0.9-0.4,1.9-0.8,2.8-1.1c0.9-0.3,2-0.4,3.1-0.4c2.3,0,4.1,0.6,5.3,1.8c0.5,0.6,0.9,1.2,1.2,2   c0.3,0.8,0.4,1.7,0.4,2.8v10.5h-1.1v-3.5c-0.2,0.5-0.5,0.9-0.9,1.4c-0.4,0.5-0.9,0.9-1.5,1.3c-0.6,0.4-1.3,0.7-2,0.9   C163.5,232.1,162.6,232.2,161.6,232.2 M161.7,231.2c1,0,2-0.1,2.8-0.4c0.9-0.3,1.6-0.7,2.2-1.2c0.6-0.5,1.1-1.1,1.5-1.8   c0.4-0.7,0.5-1.4,0.5-2.1v-2.1c-0.8-0.3-1.7-0.5-2.7-0.7c-1-0.2-2.1-0.3-3.4-0.3c-0.9,0-1.8,0.1-2.5,0.3c-0.8,0.2-1.4,0.5-2,0.8   c-0.5,0.4-1,0.8-1.3,1.4c-0.3,0.5-0.5,1.2-0.5,1.8v0.1c0,0.7,0.1,1.3,0.4,1.8c0.3,0.5,0.7,1,1.2,1.3c0.5,0.4,1,0.6,1.7,0.8   C160.3,231.1,161,231.2,161.7,231.2"></path>
	<path style="fill:#FFFFFF;" d="M183,237.3c-2.8,0-5.4-0.9-7.7-2.6l0.6-0.9c2.1,1.6,4.5,2.4,7,2.4c1.1,0,2-0.1,2.9-0.4   c0.9-0.3,1.6-0.7,2.2-1.3c0.6-0.6,1.1-1.3,1.4-2.2c0.3-0.9,0.5-1.9,0.5-3.1v-3c-0.6,1.3-1.6,2.4-2.9,3.2c-1.3,0.9-2.8,1.3-4.5,1.3   c-1.1,0-2.1-0.2-3.1-0.6c-1-0.4-1.9-1-2.6-1.7c-0.8-0.7-1.4-1.6-1.8-2.5c-0.4-1-0.7-2-0.7-3.1v-0.1c0-1.1,0.2-2.2,0.7-3.2   c0.4-1,1-1.8,1.8-2.5c0.8-0.7,1.6-1.3,2.6-1.7c1-0.4,2-0.6,3.1-0.6c0.8,0,1.6,0.1,2.4,0.3c0.8,0.2,1.4,0.5,2.1,0.9   c0.6,0.4,1.2,0.9,1.6,1.4c0.5,0.5,0.9,1.1,1.2,1.8v-4h1.1v14.2c0,1.2-0.2,2.4-0.6,3.3c-0.4,1-0.9,1.8-1.6,2.5   c-0.7,0.7-1.6,1.3-2.6,1.6C185.4,237.1,184.2,237.3,183,237.3 M182.8,229.6c1,0,1.9-0.2,2.8-0.5c0.9-0.4,1.7-0.8,2.3-1.4   c0.7-0.6,1.2-1.3,1.6-2.2c0.4-0.8,0.6-1.8,0.6-2.7v-0.1c0-1-0.2-1.9-0.6-2.7s-0.9-1.6-1.6-2.2c-0.7-0.6-1.4-1.1-2.3-1.5   c-0.9-0.4-1.8-0.5-2.8-0.5c-1,0-1.9,0.2-2.8,0.5c-0.9,0.3-1.6,0.8-2.3,1.4c-0.6,0.6-1.2,1.4-1.5,2.2c-0.4,0.8-0.6,1.8-0.6,2.8v0.1   c0,1,0.2,1.9,0.6,2.7c0.4,0.8,0.9,1.6,1.5,2.2c0.6,0.6,1.4,1.1,2.3,1.5C180.9,229.4,181.8,229.6,182.8,229.6"></path>
	<path style="fill:#FFFFFF;" d="M204.6,232.2c-1.1,0-2.2-0.2-3.2-0.6c-1-0.4-1.9-1-2.7-1.8c-0.8-0.8-1.4-1.7-1.8-2.8   c-0.4-1.1-0.7-2.3-0.7-3.6v-0.1c0-1.2,0.2-2.4,0.6-3.4c0.4-1.1,1-2,1.7-2.8c0.7-0.8,1.6-1.4,2.6-1.8c1-0.4,2-0.7,3.2-0.7   c1.3,0,2.4,0.3,3.3,0.8c1,0.5,1.8,1.2,2.4,2c0.7,0.8,1.1,1.8,1.5,2.8c0.3,1.1,0.5,2.2,0.5,3.3v0.4h-14.6c0,1.1,0.3,2.2,0.7,3.1   c0.4,0.9,0.9,1.7,1.6,2.3c0.6,0.6,1.4,1.1,2.3,1.5c0.9,0.3,1.8,0.5,2.7,0.5c1.3,0,2.5-0.3,3.5-0.9c1-0.6,1.9-1.3,2.5-2.2l0.8,0.6   c-0.8,1-1.7,1.8-2.9,2.5C207.4,231.9,206.1,232.2,204.6,232.2 M210.8,222.8c0-0.9-0.2-1.8-0.5-2.7c-0.3-0.9-0.7-1.6-1.3-2.3   c-0.5-0.7-1.2-1.2-2-1.6c-0.8-0.4-1.7-0.6-2.8-0.6c-1,0-1.8,0.2-2.7,0.5c-0.8,0.4-1.5,0.9-2.1,1.5c-0.6,0.6-1.1,1.4-1.4,2.3   c-0.4,0.9-0.6,1.8-0.6,2.9H210.8z"></path>
	<path style="fill:#FFFFFF;" d="M222.1,232.1c-1.2,0-2.4-0.2-3.6-0.7c-1.2-0.4-2.3-1.1-3.2-1.8l0.6-0.8c0.9,0.7,1.9,1.3,3,1.7   c1.1,0.4,2.2,0.6,3.2,0.6c0.7,0,1.3-0.1,1.9-0.3c0.6-0.2,1.1-0.4,1.5-0.7c0.4-0.3,0.8-0.7,1-1.1c0.2-0.4,0.4-0.9,0.4-1.4v-0.1   c0-0.6-0.1-1.1-0.4-1.5c-0.3-0.4-0.7-0.7-1.1-1c-0.5-0.3-1-0.5-1.6-0.7c-0.6-0.2-1.2-0.4-1.9-0.6c-0.8-0.2-1.5-0.5-2.2-0.7   c-0.7-0.2-1.3-0.5-1.9-0.9c-0.5-0.3-1-0.7-1.3-1.2c-0.3-0.5-0.5-1.1-0.5-1.8v-0.1c0-0.6,0.1-1.2,0.4-1.7s0.7-1,1.2-1.4   c0.5-0.4,1.1-0.7,1.8-0.9c0.7-0.2,1.5-0.3,2.3-0.3c1,0,2,0.2,3,0.5c1,0.3,2,0.8,2.9,1.4l-0.6,0.9c-0.8-0.6-1.7-1-2.6-1.3   c-0.9-0.3-1.8-0.4-2.7-0.4c-1.4,0-2.5,0.3-3.3,0.9c-0.8,0.6-1.2,1.4-1.2,2.3v0.1c0,0.5,0.1,1,0.4,1.3c0.3,0.4,0.6,0.7,1.1,1   c0.5,0.3,1,0.5,1.6,0.7c0.6,0.2,1.3,0.4,1.9,0.6c0.8,0.2,1.5,0.4,2.2,0.7c0.7,0.2,1.3,0.5,1.9,0.9c0.5,0.4,1,0.8,1.3,1.3   c0.3,0.5,0.5,1.1,0.5,1.9v0.1c0,0.7-0.2,1.3-0.5,1.9c-0.3,0.6-0.7,1-1.3,1.4c-0.5,0.4-1.2,0.7-1.9,0.9   C223.7,232,222.9,232.1,222.1,232.1"></path>
</g>
</svg>