<?xml version="1.0" encoding="UTF-8"?>
<svg width="628px" height="130px" viewBox="0 0 628 130" version="1.1" xmlns="http://www.w3.org/2000/svg" xmlns:xlink="http://www.w3.org/1999/xlink">
    <!-- Generator: Sketch 57.1 (83088) - https://sketch.com -->
    <title>domon-logo</title>
    <desc>Created with Sketch.</desc>
    <g id="Brand-Proposal" stroke="none" stroke-width="1" fill="none" fill-rule="evenodd">
        <g id="3-Alt" transform="translate(-626.000000, -465.000000)" fill-rule="nonzero">
            <g id="domon-logo" transform="translate(626.000000, 465.000000)">
                <path d="M42.3787164,65.763917 L17.76,88.9104944 L17.76,57.1621903 L64.38,17.7674572 L111,57.1621903 L111,128.76 L128.76,128.76 L128.76,57.0833953 C128.76,51.9010571 126.472339,46.9848581 122.510748,43.6372431 L75.8202718,4.18295629 C69.2200858,-1.39431876 59.5399142,-1.39431876 52.9397282,4.18295629 L6.24925205,43.6372431 C2.28766129,46.9848581 1.13686838e-13,51.9010571 1.13686838e-13,57.0833953 L1.13686838e-13,129.985542 L42.5933166,89.9392012 L61.1326082,106.759927 L101.883546,66.2858944 L89.3682146,53.6849389 L60.5797727,82.2777618 L42.3787164,65.763917 Z" id="Path" fill="#49D586"/>
                <path d="M179.137086,114 L179.137086,16.7387738 L214.479897,16.7387738 C222.42522,16.7387738 229.388689,18.0173123 235.370513,20.5744278 C241.352336,23.1315432 246.352335,26.6018621 250.37066,30.9854886 C254.388984,35.3691151 257.402682,40.5061003 259.411844,46.3965984 C261.421006,52.2870965 262.425572,58.565634 262.425572,65.2323992 C262.425572,72.6297689 261.306851,79.3192652 259.069375,85.3010889 C256.831899,91.2829125 253.612722,96.3970667 249.411746,100.643705 C245.210771,104.890343 240.16511,108.178014 234.274612,110.506815 C228.384114,112.835617 221.785941,114 214.479897,114 L179.137086,114 Z M243.38429,65.2323992 C243.38429,60.5747961 242.745021,56.2825596 241.466463,52.3555608 C240.187905,48.4285621 238.315759,45.0495674 235.84997,42.2184753 C233.38418,39.3873832 230.347651,37.1956028 226.740291,35.6430684 C223.132932,34.0905341 219.046175,33.3142785 214.479897,33.3142785 L198.04138,33.3142785 L198.04138,97.4244952 L214.479897,97.4244952 C219.1375,97.4244952 223.26992,96.6025776 226.877279,94.9587177 C230.484638,93.3148578 233.498336,91.0545843 235.918463,88.1778294 C238.338591,85.3010745 240.187905,81.8992487 241.466463,77.97225 C242.745021,74.0452513 243.38429,69.7986768 243.38429,65.2323992 Z M306.170408,115.369876 C300.325572,115.369876 295.074432,114.36531 290.416829,112.356148 C285.759226,110.346986 281.809455,107.630092 278.567398,104.205384 C275.325341,100.780675 272.836757,96.8309045 271.101571,92.3559525 C269.366386,87.8810004 268.498806,83.1778051 268.498806,78.2462253 C268.498806,73.2233199 269.366386,68.4744625 271.101571,63.9995105 C272.836757,59.5245584 275.325341,55.5747876 278.567398,52.1500794 C281.809455,48.7253712 285.759226,46.0084768 290.416829,43.9993146 C295.074432,41.9901525 300.325572,40.9855865 306.170408,40.9855865 C312.015243,40.9855865 317.243552,41.9901525 321.855493,43.9993146 C326.467433,46.0084768 330.394373,48.7253712 333.63643,52.1500794 C336.878487,55.5747876 339.367071,59.5245584 341.102257,63.9995105 C342.837442,68.4744625 343.705022,73.2233199 343.705022,78.2462253 C343.705022,83.1778051 342.837442,87.8810004 341.102257,92.3559525 C339.367071,96.8309045 336.901318,100.780675 333.704924,104.205384 C330.50853,107.630092 326.58159,110.346986 321.923987,112.356148 C317.266384,114.36531 312.015243,115.369876 306.170408,115.369876 Z M287.403101,78.2462253 C287.403101,81.4426196 287.882553,84.3421624 288.841471,86.9449406 C289.800389,89.5477188 291.12459,91.8079923 292.814113,93.7258289 C294.503635,95.6436655 296.489936,97.1276834 298.773075,98.1779273 C301.056214,99.2281711 303.521967,99.7532852 306.170408,99.7532852 C308.818849,99.7532852 311.284602,99.2281711 313.56774,98.1779273 C315.850879,97.1276834 317.83718,95.6436655 319.526703,93.7258289 C321.216226,91.8079923 322.540426,89.5248878 323.499345,86.8764468 C324.458263,84.2280058 324.937715,81.305632 324.937715,78.1092376 C324.937715,75.0041689 324.458263,72.1274572 323.499345,69.4790162 C322.540426,66.8305752 321.216226,64.5474706 319.526703,62.629634 C317.83718,60.7117974 315.850879,59.2277795 313.56774,58.1775356 C311.284602,57.1272918 308.818849,56.6021778 306.170408,56.6021778 C303.521967,56.6021778 301.056214,57.1501228 298.773075,58.2460295 C296.489936,59.3419361 294.503635,60.8487851 292.814113,62.7666217 C291.12459,64.6844583 289.800389,66.9675628 288.841471,69.6160038 C287.882553,72.2644448 287.403101,75.1411565 287.403101,78.2462253 Z M465.121851,114 L446.765507,114 L446.765507,73.7256331 C446.765507,67.9721233 445.783772,63.771211 443.820272,61.12277 C441.856773,58.474329 439.139878,57.1501283 435.669507,57.1501283 C432.016485,57.1501283 428.591829,58.5428221 425.395434,61.3282514 C422.19904,64.1136808 419.915935,67.743817 418.546052,72.218769 L418.546052,114 L400.189708,114 L400.189708,73.7256331 C400.189708,67.9721233 399.207973,63.771211 397.244474,61.12277 C395.280974,58.474329 392.56408,57.1501283 389.093709,57.1501283 C385.532013,57.1501283 382.130187,58.5199911 378.88813,61.2597576 C375.646073,63.9995242 373.340137,67.6068293 371.970254,72.0817814 L371.970254,114 L353.61391,114 L353.61391,42.2184753 L370.189414,42.2184753 L370.189414,55.5062766 C372.837855,50.8486735 376.467992,47.2641993 381.079932,44.7527467 C385.691872,42.241294 390.965844,40.9855865 396.902005,40.9855865 C402.929491,40.9855865 407.587024,42.4467734 410.874744,45.3691911 C414.162464,48.2916087 416.26292,51.8989139 417.176176,56.1912148 C420.098593,51.259635 423.797223,47.4925125 428.272175,44.8897343 C432.747127,42.2869561 437.861281,40.9855865 443.614791,40.9855865 C447.998417,40.9855865 451.605722,41.8075041 454.436815,43.4513641 C457.267907,45.095224 459.459687,47.2413423 461.012221,49.8897833 C462.564756,52.5382243 463.637815,55.5519223 464.231431,58.9309677 C464.825047,62.3100131 465.121851,65.7346699 465.121851,69.2050409 L465.121851,114 Z M500.647428,115.369876 C493.250058,115.369876 487.633621,112.995448 483.797948,108.246519 C479.962274,103.49759 478.044467,96.4656283 478.044467,87.1504221 L478.044467,42.2184753 L496.400811,42.2184753 L496.400811,83.1777804 C496.400811,94.2281722 500.373413,99.7532852 508.318736,99.7532852 C511.880432,99.7532852 515.32792,98.680226 518.661303,96.5340756 C521.994685,94.3879251 524.71158,91.1230856 526.812067,86.7394591 L526.812067,42.2184753 L545.168411,42.2184753 L545.168411,92.903903 C545.168411,94.8217396 545.510877,96.1916024 546.195819,97.0135323 C546.88076,97.8354623 547.999482,98.2920832 549.552016,98.3834087 L549.552016,114 C547.725505,114.365302 546.195825,114.593613 544.96293,114.684938 C543.730035,114.776264 542.611314,114.821926 541.606733,114.821926 C538.319013,114.821926 535.647781,114.068501 533.592956,112.56163 C531.538131,111.054758 530.328085,108.977133 529.962783,106.328692 L529.55182,100.575211 C526.355426,105.506791 522.245838,109.20542 517.222932,111.67121 C512.200027,114.137 506.674914,115.369876 500.647428,115.369876 Z M627.68075,114 L609.324406,114 L609.324406,73.7256331 C609.324406,67.9721233 608.31984,63.771211 606.310678,61.12277 C604.301515,58.474329 601.516128,57.1501283 597.954431,57.1501283 C596.12792,57.1501283 594.255775,57.5154251 592.337938,58.2460295 C590.420101,58.9766339 588.616449,60.0040309 586.926926,61.3282514 C585.237403,62.6524719 583.707723,64.2278141 582.33784,66.0543251 C580.967957,67.8808361 579.963391,69.8899681 579.324112,72.0817814 L579.324112,114 L560.967768,114 L560.967768,42.2184753 L577.543273,42.2184753 L577.543273,55.5062766 C580.191714,50.939999 584.027329,47.3783559 589.050235,44.8212405 C594.07314,42.264125 599.735239,40.9855865 606.036702,40.9855865 C610.511654,40.9855865 614.164622,41.8075041 616.995714,43.4513641 C619.826806,45.095224 622.018586,47.2413423 623.571121,49.8897833 C625.123655,52.5382243 626.196714,55.5519223 626.79033,58.9309677 C627.383946,62.3100131 627.68075,65.7346699 627.68075,69.2050409 L627.68075,114 Z" id="Domun" fill="#000000"/>
            </g>
        </g>
    </g>
</svg>